# xmcd
#
# Track frame offsets:
#	188
#	13125
#	27683
#	40390
#	64768
#	77745
#	89390
#	101760
#	112690
#	131758
#	145593
#	158488
#	176310
#	191048
#
# Disc length: 2710
#
# Revision: 3
# Processed by: cddbd v1.5.1PL0 Copyright (c) Steve Scherf et al.
# Submitted via: ExactAudioCopy v0.90b4
# Normalized: r2:DSETVAR1
#
DISCID=b40a940e
DTITLE=Various Artist - Feelin' the Blues
DYEAR=1993
DGENRE=Blues
TTITLE0=Joe Turner - Rock Me, Momma
TTITLE1=Muddy Waters - Good Morning Little School Girl
TTITLE2=Howlin' Wolf - Tell Me What I've Done
TTITLE3=B.B. King - The Thrill Is Gone
TTITLE4=T-Bone Walker - Why My Baby
TTITLE5=Albert Collins - Snow-Cone II
TTITLE6=Buddy Guy - Keep It To Myself
TTITLE7=T-Bone Walker - Stormy Monday
TTITLE8=B.B. King - I Want You So Bad
TTITLE9=Howlin' Wolf - Three Hundred Pounds Of Joy
TTITLE10=Muddy Waters - Got My Mojo Workin'
TTITLE11=Buddy Guy - Worried Mind
TTITLE12=Albert Collins - Dyin' Flu
TTITLE13=Joe Turner - Doggin' The Dog
EXTD=
EXTT0=Joe Turner\n
EXTT1=Muddy Waters\n
EXTT2=Howlin' Wolf\n
EXTT3=B.B. King\n
EXTT4=T-Bone Walker\n
EXTT5=Albert Collins\n
EXTT6=Buddy Guy\n
EXTT7=T-Bone Walker\n
EXTT8=B.B. King\n
EXTT9=Howlin' Wolf\n
EXTT10=Muddy Waters\n
EXTT11=Buddy Guy\n
EXTT12=Albert Collins\n
EXTT13=Joe Turner\n
PLAYORDER=
